PathFileType	4	(X/Y/Z)	Formatted/subject04/trials/walk2/markers.trc
DataRate	CameraRate	NumFrames	NumMarkers	Units	OrigDataRate	OrigDataStartFrame	OrigNumFrames
199.9999999999954	199.9999999999954	4	64	m	199.9999999999954	0	223
Frame#	Time	CLAV			C7			RACR			RASH			RPSH			RLEL			RMEL			RUA1			RUA2			RUA3			RFAsuperior			RFAradius			RFAulna			RASI			RPSI			RCAL			RTOE			RMT5			RTH1			RTH2			RTH3			RTB1			RTB2			RTB3			RLFC			RMFC			RLMAL			RMMAL			RHJC			RKJC			REJC			RAJC			RSJC			LACR			LASH			LPSH			LLEL			LMEL			LUA1			LUA2			LUA3			LFAsuperior			LFAradius			LFAulna			LASI			LPSI			LCAL			LTOE			LMT5			LTH1			LTH2			LTH3			LTB1			LTB2			LTB3			LLFC			LMFC			LLMAL			LMMAL			LHJC			LKJC			LEJC			LAJC			LSJC			
		X1	Y1	Z1	X2	Y2	Z2	X3	Y3	Z3	X4	Y4	Z4	X5	Y5	Z5	X6	Y6	Z6	X7	Y7	Z7	X8	Y8	Z8	X9	Y9	Z9	X10	Y10	Z10	X11	Y11	Z11	X12	Y12	Z12	X13	Y13	Z13	X14	Y14	Z14	X15	Y15	Z15	X16	Y16	Z16	X17	Y17	Z17	X18	Y18	Z18	X19	Y19	Z19	X20	Y20	Z20	X21	Y21	Z21	X22	Y22	Z22	X23	Y23	Z23	X24	Y24	Z24	X25	Y25	Z25	X26	Y26	Z26	X27	Y27	Z27	X28	Y28	Z28	X29	Y29	Z29	X30	Y30	Z30	X31	Y31	Z31	X32	Y32	Z32	X33	Y33	Z33	X34	Y34	Z34	X35	Y35	Z35	X36	Y36	Z36	X37	Y37	Z37	X38	Y38	Z38	X39	Y39	Z39	X40	Y40	Z40	X41	Y41	Z41	X42	Y42	Z42	X43	Y43	Z43	X44	Y44	Z44	X45	Y45	Z45	X46	Y46	Z46	X47	Y47	Z47	X48	Y48	Z48	X49	Y49	Z49	X50	Y50	Z50	X51	Y51	Z51	X52	Y52	Z52	X53	Y53	Z53	X54	Y54	Z54	X55	Y55	Z55	X56	Y56	Z56	X57	Y57	Z57	X58	Y58	Z58	X59	Y59	Z59	X60	Y60	Z60	X61	Y61	Z61	X62	Y62	Z62	X63	Y63	Z63	X64	Y64	Z64	

1	1.41	1.243815496031279	1.425743156786137	-0.4502029665170286	1.142879750714829	1.524816960643654	-0.486861164808427	1.180669939360101	1.473467640759659	-0.3109225467168217	1.232081962148206	1.421694871525004	-0.2820737237796096	1.133291577174878	1.445690225660926	-0.2886478257504879	1.052046304648712	1.162526306354099	-0.2306422099586466	1.029074576093707	1.171659730317387	-0.3131630761807072	1.128225898376896	1.333712654885261	-0.2468486844909791	1.063979775316265	1.313363519704245	-0.2535741450550892	1.08910564022102	1.240013781870624	-0.2394682708703806	1.079590199817513	1.075323336834113	-0.2893885627676376	1.099523496674697	0.8932990671245362	-0.2489868290131025	1.036603359415403	0.9099654845600147	-0.2150245565060566	1.218725087029465	0.9788147234947508	-0.3642965107527163	1.038531661147497	1.028050370586296	-0.4369263129002225	1.379312105197769	0.0657259376625941	-0.3886840664925789	1.600336243018097	0.1451618177181495	-0.3728262455317782	1.585419993123471	0.1161065572428188	-0.2996384306715947	1.188655151623874	0.8219642000776732	-0.2984832837946251	1.256587217950305	0.7401879310108569	-0.3045517883319461	1.239163873087894	0.5913722069354709	-0.3166245460381066	1.39055259033304	0.3716646837884483	-0.3667093644163174	1.386449278823739	0.2595618813347352	-0.3237153840720876	1.445363728321579	0.2019569619377021	-0.3793642748196368	1.295510334114432	0.4841147643718162	-0.3271890725007596	1.303147381180519	0.4985640912128665	-0.4517557452122222	1.445207927820625	0.09347124413329544	-0.3180351117648756	1.462503920464098	0.0956148967114886	-0.417781214326109	1.128873753861858	0.8958587512382779	-0.4119377085054355	1.299844183301158	0.4993969941376076	-0.3941731155094131	1.040501522958769	1.162115757927831	-0.2692092486808752	1.447273639993284	0.07829677875197349	-0.3761531725793896	1.18580360630745	1.432935495169977	-0.2851533618478675	1.203891772553447	1.483869674564604	-0.6580983908555487	1.258194618634801	1.422273534736598	-0.6723618832370113	1.151501002863607	1.448188517203393	-0.6794619133655599	1.202842525218599	1.147286677604297	-0.768938676478346	1.149976356665845	1.133446598447656	-0.7026319041507617	1.191044625932175	1.35341747515835	-0.7402456819515778	1.137332959723734	1.277925018432092	-0.7418086830573197	1.206911391771443	1.218688953217446	-0.7540090197547186	1.252629644210358	1.100023341749537	-0.6995676882459442	1.384216024767266	0.9693651714583071	-0.6706105377905551	1.345647484345115	0.9363252072692712	-0.7257889599793536	1.207438243102898	0.981617807373118	-0.6214855130548854	1.03686606364896	1.030571805514348	-0.5301598013418409	0.7336424497581789	0.1091873957247186	-0.5624634852627445	0.9638029247634055	0.03637697017328241	-0.5633065862412455	0.9271187913796538	0.02517061599620037	-0.6482502871608801	1.108410503707135	0.8308841806350162	-0.6767014213435205	1.120151186477462	0.6899657124975871	-0.6591454327815733	1.007326801810164	0.6071071278907603	-0.6552772576230422	0.9494026939908994	0.321741182487138	-0.5953444689673335	0.8940363415822006	0.2797087881691798	-0.6374290348812949	0.8885798615684333	0.1969646512471013	-0.5852413707130333	0.9949381721452961	0.4871184469143526	-0.6330571775825595	0.9956933537749599	0.4861905515668826	-0.5141899979694706	0.8103068913099388	0.09312803771906808	-0.6301735522401604	0.819369023604217	0.08896593220157728	-0.529408547302943	1.121563738603078	0.8993562137576411	-0.5712040481710409	0.9961082640594419	0.4852432682113579	-0.5716344691258354	1.178260866164754	1.133921947623626	-0.737264347032876	0.7982483018484028	0.08494720687554036	-0.5718648480345575	1.211916262794046	1.43351415838157	-0.6754415213052692	
2	1.415	1.250453333640872	1.42541655830933	-0.449062565055428	1.149402805886345	1.524453706512522	-0.4855029398019518	1.187331858848607	1.472844969809931	-0.309670139722654	1.238808765530909	1.421073736014783	-0.2809344870242761	1.13999179059377	1.444984002186436	-0.2874183620912074	1.058795823453195	1.161744562408778	-0.2299759743478008	1.035686974451521	1.171108682756497	-0.3124326748400499	1.134984009569832	1.332958975139933	-0.245842020174446	1.07072236331508	1.31264155609798	-0.2525148572651564	1.095856533164876	1.239248292268466	-0.2386522765385792	1.086268782454453	1.074696719526597	-0.2889362191180311	1.106130013669834	0.8925479277817772	-0.2490636679357301	1.043217255464084	0.9091408446910458	-0.2150517720742554	1.226123454579443	0.9783548868858387	-0.3641337109364151	1.045679231554759	1.027768985380976	-0.4360158163766444	1.382617208084964	0.0646592743591029	-0.3894586483500521	1.604486768910105	0.141941137426857	-0.3748090529603881	1.589701527523131	0.112994157059856	-0.3015517810962371	1.196117147764187	0.8215433940300657	-0.2981023439864609	1.264048602506361	0.7397858369882417	-0.3044245183237776	1.24662161480702	0.5909721252831283	-0.3165168078167562	1.396851151803122	0.3704462592602346	-0.3674181314770529	1.391936871294551	0.2583659839468015	-0.3244504743160354	1.449998088583399	0.2002386010833938	-0.3804517291965549	1.302959269794596	0.4837329633260516	-0.3273113734928566	1.310202514393457	0.498246073301945	-0.4518941513193381	1.449167077816091	0.09172937331569903	-0.3191696078829606	1.465926723905202	0.09375925613452679	-0.419009606995364	1.135963485069603	0.8954806268826035	-0.4113319742013667	1.307192301076771	0.4990361433966504	-0.3943206968140641	1.047185973735121	1.161442016540518	-0.2685244745209844	1.450766839602393	0.07656440833079931	-0.3773048395283459	1.192517953621606	1.432274500202894	-0.2839718582993801	1.210367998664688	1.483854219529867	-0.6568396304336819	1.264723473668023	1.422335047209146	-0.6712342309247619	1.158001140735913	1.448158134674531	-0.6782368159970477	1.209595086909684	1.147347631585548	-0.7679115749572301	1.156840452895989	1.133403566873692	-0.7015377904154025	1.197572579031792	1.353447483969171	-0.7390898086246417	1.143955910664064	1.277886817147297	-0.7406180705420449	1.213593183229879	1.218746978658063	-0.7529488295179987	1.259381007306057	1.099615345886079	-0.6987795766889395	1.390537988604333	0.9683669629477242	-0.6705526780423204	1.351738718263614	0.9356691550568078	-0.7257731434451925	1.21372806920726	0.9810060259178875	-0.6212732818187374	1.043613631217642	1.030232302790908	-0.5292428541859739	0.7351087259838247	0.1119817908711852	-0.562637531308686	0.9642504177123935	0.03602812374559668	-0.5636566999981237	0.9273698368943326	0.02538165969082394	-0.6485873534963531	1.114363748086137	0.8306906927583253	-0.6761876955041668	1.125784515627239	0.6897021040094203	-0.6589872612112621	1.012756026932971	0.6071270673055992	-0.6550156551746055	0.9530228627525483	0.3220590149576197	-0.5954518445516812	0.8971719735986131	0.2806666925851721	-0.6375305763367685	0.8908811062719004	0.1979275690927688	-0.5854289439972138	1.000114081522703	0.4871198047540519	-0.6330399455031378	1.001176348149836	0.4859151764029456	-0.5141775959622147	0.8114626044683111	0.09498221865380807	-0.6304017970656685	0.8205733715172666	0.09061168114444845	-0.5296500034850372	1.127969198532153	0.8988843955565956	-0.5705674641500871	1.001492904569534	0.4850268827625496	-0.5716057649272213	1.185075392990579	1.133934100091907	-0.7362098573681402	0.7993715397313255	0.08686576833994031	-0.5720908208514315	1.218432661758721	1.433535811397256	-0.6742716021998658	
3	1.42	1.257102567117758	1.425147640347038	-0.4478979384035367	1.155925437658575	1.524134852224296	-0.4841220623339109	1.19399315620979	1.472267352399072	-0.3083954006898574	1.245540733177915	1.420504149393216	-0.2797721858190264	1.146694319097187	1.444315841196557	-0.2861695100138767	1.065689359380964	1.160958688756301	-0.2291933187610217	1.042341931425909	1.170566508265946	-0.3115547206449794	1.141819444029406	1.3322255790609	-0.2447692212261856	1.077540226030545	1.311923071275679	-0.2513170271046739	1.10271944435096	1.238490825635412	-0.2377456941197336	1.093070380558136	1.074095910096648	-0.2884077819322201	1.112972523708829	0.8918215690089879	-0.2491338662076268	1.050089974323694	0.9083040949476678	-0.21501260570612	1.233549247864223	0.9779445034695422	-0.3639276688445188	1.052876797854621	1.027508991421648	-0.4351297416876821	1.38485156807858	0.06377860793329515	-0.3901106287159878	1.608045400402283	0.1374421886312589	-0.3770190621001042	1.593320194471418	0.1086908603280674	-0.3036727033130963	1.203690730320468	0.8212118233514665	-0.297716010275884	1.271662971735065	0.7395073836748125	-0.3042817927415391	1.254309113494662	0.5906844277078419	-0.3163654816788104	1.403079320994097	0.3690951392075704	-0.3681332954027149	1.397052242253117	0.2570708713963542	-0.3251612629586994	1.454019641206274	0.1982440883021644	-0.3815541985721772	1.31069242778912	0.4834910818223616	-0.3273745843642721	1.317525533693425	0.4980489324078532	-0.4519753112260557	1.452239312399958	0.08973396548421325	-0.3202938920294778	1.468371205406319	0.09158729452116909	-0.4202406717853421	1.143119035868324	0.8951395020216282	-0.4107288186371754	1.314852677310115	0.4987983383063729	-0.3944193244922353	1.05396830500065	1.160770029608176	-0.2677088779809028	1.45327109158999	0.07456889504520126	-0.3784419498604285	1.199236130501798	1.431658736418491	-0.282769012338104	1.216856194726109	1.483896332677376	-0.6555561284299987	1.271273157241359	1.42246222439299	-0.6700811165222065	1.164519030034173	1.448178851540598	-0.6769902266526449	1.216235248772183	1.147479223361647	-0.7668821623611921	1.16360557224936	1.133445262559347	-0.7004281728773785	1.204072483439046	1.353549899909798	-0.7379110134506951	1.150522605571104	1.277941023817299	-0.7393961121904709	1.220193146192908	1.218872843999282	-0.7518814534478485	1.266006078528638	1.099243783925448	-0.6979980767302596	1.396686796817126	0.967356401359594	-0.6705514419283675	1.35764465347506	0.9350329305328082	-0.7258210908879972	1.220150836678503	0.9804727862236665	-0.6210181653515865	1.05044909149078	1.029925230486801	-0.5283492849536086	0.7367152087618146	0.1149788981100702	-0.5627936601815312	0.9647197203713089	0.0356787254897026	-0.5639505745986627	0.9276499305060988	0.02561376535641523	-0.6488697573481916	1.120460711806399	0.8305531834358235	-0.6756762725344773	1.131591658069564	0.6894981312773756	-0.6588344993391052	1.018378149275071	0.607182082145775	-0.6547578488192096	0.9568146451036353	0.3224369998097508	-0.5955497122120241	0.9004733453138203	0.2817059249188837	-0.6376199310792925	0.8933163900250031	0.1989883656516965	-0.5855958881728359	1.005508916185718	0.487154098064338	-0.6330286164012194	1.0068804756667	0.4856692734188816	-0.5141726035175526	0.8127274219781839	0.09697090799341418	-0.6306009732292301	0.8218786599408223	0.09239787013054446	-0.5298618360852627	1.134505457053246	0.8984675222397348	-0.5699336114640946	1.007100389510146	0.4848360775337042	-0.5715832801043047	1.191781427756383	1.134023381040102	-0.7351475115791082	0.8005992185614338	0.08892911232454109	-0.5722873662105352	1.224968554565242	1.433616811418265	-0.6730779430412841	
4	1.425	1.263766567053478	1.424920891013591	-0.4467093155830038	1.162454141400896	1.523849429599958	-0.4827149187151879	1.200666127430179	1.471723585440496	-0.3070960448982226	1.252288986563522	1.419972686368152	-0.2785864821805115	1.153411172234564	1.443677056789542	-0.2848965262741385	1.072695217397159	1.160171508254702	-0.228328277845131	1.049073133670318	1.170014462386256	-0.3105835300938683	1.148713432520761	1.331511174719466	-0.2436480658970519	1.084420117251654	1.31120493183712	-0.2500441242494057	1.109669698187929	1.237741956710559	-0.2367731498283417	1.099999194301677	1.073509205795528	-0.2878106533483413	1.120050743601584	0.8911216089960381	-0.249143211208291	1.057207606713429	0.9074629879590976	-0.2148817375629976	1.241048485082432	0.9775896537982454	-0.3637161181158202	1.06013343945582	1.027239709957518	-0.4342393485075949	1.386178733419706	0.06288316227718088	-0.3906268834958153	1.610838212154661	0.1322611935726	-0.379312891576303	1.596157282679695	0.1037632573320905	-0.305858845697266	1.211412728052379	0.8209503105717599	-0.2973390421031457	1.279445072264722	0.7393148958945743	-0.3041368194342792	1.262201131614799	0.5904752866461838	-0.3161726570268988	1.409214149179567	0.3676065470605848	-0.3688294971185003	1.401814723142557	0.2556810015053103	-0.3258146325292027	1.457473566410663	0.1960086136923642	-0.3826242922585363	1.31865551592191	0.483339574320604	-0.3273768308869577	1.325058662899697	0.4979123028446171	-0.4519986539220909	1.454507473897627	0.08753074064544125	-0.3213528075633642	1.469931559846946	0.08915198530773816	-0.4214152916541969	1.150390228414097	0.894824103790569	-0.4101443784548851	1.322762027843053	0.4986277875018112	-0.3944669912854034	1.060847370652819	1.160092538789991	-0.2668054048354208	1.454883794916195	0.07235840209556038	-0.3795069053093318	1.205969674441122	1.431076998692052	-0.2815424223361711	1.223352751472867	1.483980550463319	-0.6542467419961133	1.27783636896395	1.422636855449491	-0.6689033874615127	1.171048329488675	1.448237575504591	-0.6757182350826298	1.222779524010191	1.147664822865984	-0.7658497627453857	1.170278391682867	1.133553449629739	-0.6993105421702356	1.21054997160019	1.353707916098188	-0.7367110283543361	1.15704126120738	1.278069058206095	-0.7381526145597017	1.226723255609493	1.219050124776914	-0.7508057958548203	1.272519407705443	1.098895975537151	-0.6972248665040396	1.402667815176599	0.9663171210674216	-0.6705923871858916	1.363366764539357	0.934394322058631	-0.7259113906241902	1.226664759926479	0.9800475614531005	-0.6207540533915986	1.057349334103976	1.029628988000355	-0.5274496232842567	0.738467596124144	0.1181816005587176	-0.5629397866969872	0.9652078705067629	0.03533710180044621	-0.5641848333861298	0.9279604144627795	0.02587239510543963	-0.6490952961537559	1.126701570680288	0.8304716428966279	-0.675179458579979	1.137573013552179	0.6893541263509401	-0.6586952454546572	1.024193774324701	0.6072717094510394	-0.654514988796573	0.9607784980226374	0.3228773884111822	-0.5956437270494048	0.9039434556908792	0.282827404354539	-0.6377037149181737	0.8958876932202244	0.2001504459616453	-0.5857465893012219	1.011123108435931	0.4872212055269438	-0.6330317891924241	1.012800880946874	0.4854560450442058	-0.5141835373495312	0.8141068212972365	0.09909657250706383	-0.6307755218467003	0.8232866831568953	0.09433020865123631	-0.5300479511627678	1.14116753487403	0.8981087313645556	-0.5693159483510326	1.012928225026329	0.4846724363897362	-0.5715755981828011	1.198390996162906	1.134172409501394	-0.7340804126393943	0.8019349355688048	0.09114149017320677	-0.5724591225913938	1.231517056841549	1.433741167773391	-0.6718593276171723	
